# xmcd
#
# Track frame offsets:
#	150
#	12217
#	27030
#	40447
#	53985
#	71476
#	87256
#	103132
#	120645
#	134950
#	152368
#	174753
#	191013
#	204304
#	217546
#	234187
#	252554
#	268738
#	283776
#
# Disc length: 3977 seconds
#
# Revision: 1
# Processed by: cddbd v1.5.2PL0 Copyright (c) Steve Scherf et al.
# Submitted via: audiograbber 1.83.01
#
DISCID=080f8713
DTITLE=Olon CD - Volume 450
DYEAR=2010
DGENRE=pop
TTITLE0=De Mannen van Brabant - Ik heb je lief
TTITLE1=Marlous - De waarheid
TTITLE2=Antonio - Lieve heer heb medelij
TTITLE3=A Silent Express - I never saw this coming
TTITLE4=Solomon Burke and De Dijk - Hold on tight
TTITLE5=Sabrina Starke - Sunny days
TTITLE6=Remco van Veld - 't Is moeilijk bescheiden te blijven
TTITLE7=Caro Emerald - Stuck
TTITLE8=Schradinova - Clowing
TTITLE9=Marco Borsato - Waterkant
TTITLE10=Kane - High places
TTITLE11=Gebroeders Ko - Doe de daeforing
TTITLE12=Bouke - Hot sexy mama
TTITLE13=La Fuente - Tu tu
TTITLE14=Django Wagner - Ik geniet zo van het leven
TTITLE15=Tatjana - Ga nu maar
TTITLE16=Irma Dee - Soul survivor
TTITLE17=Henk Kamphuis - De ideale vrouw
TTITLE18=Silvia Swart - Power party polka
EXTD=
EXTT0=
EXTT1=
EXTT2=
EXTT3=
EXTT4=
EXTT5=
EXTT6=
EXTT7=
EXTT8=
EXTT9=
EXTT10=
EXTT11=
EXTT12=
EXTT13=
EXTT14=
EXTT15=
EXTT16=
EXTT17=
EXTT18=
PLAYORDER=
